<?xml version="1.0" encoding="UTF-8"?>
<svg version="1.1" xmlns="http://www.w3.org/2000/svg" width="884" height="884">
<path d="M0 0 C291.72 0 583.44 0 884 0 C884 291.72 884 583.44 884 884 C592.28 884 300.56 884 0 884 C0 592.28 0 300.56 0 0 Z " fill="#0A0909" transform="translate(0,0)"/>
<path d="M0 0 C8.82928426 0.0744459 16.31678018 5.71254138 23.56640625 10.20703125 C24.16066406 10.57441406 24.75492187 10.94179688 25.3671875 11.3203125 C27.78689791 12.82239007 30.20043229 14.33377715 32.60693359 15.85693359 C40.2483541 20.68110807 48.01322822 25.29920067 55.76849365 29.93688965 C62.79892154 34.14147895 69.82493967 38.35193623 76.81640625 42.62109375 C77.39916321 42.976875 77.98192017 43.33265625 78.58233643 43.69921875 C79.16134705 44.05274414 79.74035767 44.40626953 80.33691406 44.77050781 C91.58083037 51.63562082 102.90469282 58.34018953 114.33422852 64.89306641 C123.28153488 70.02596956 132.14479545 75.28451178 140.96386719 80.63427734 C143.85902955 82.38386796 146.76332351 84.11776441 149.66796875 85.8515625 C151.73845708 87.09475929 153.80877263 88.33824389 155.87890625 89.58203125 C157.32076294 90.43873413 157.32076294 90.43873413 158.79174805 91.31274414 C168.4921063 97.16793079 175.12643683 102.67186013 179.87890625 113.08203125 C181.74675462 121.57225111 180.78087762 129.53859462 176.56640625 137.20703125 C172.20266049 143.12119375 167.34093317 147.10034944 161.06640625 150.83203125 C160.24744873 151.33436279 159.42849121 151.83669434 158.5847168 152.35424805 C155.91966085 153.98490898 153.2435687 155.59633794 150.56640625 157.20703125 C148.72845267 158.32434718 146.8912212 159.44285175 145.0546875 160.5625 C142.19706953 162.30381452 139.33874827 164.04388826 136.47753906 165.77929688 C125.43827217 172.47843325 114.49805322 179.33411648 103.56640625 186.20703125 C102.74221191 186.72475098 101.91801758 187.2424707 101.06884766 187.77587891 C92.48810909 193.168826 83.93695803 198.60615136 75.40795898 204.08056641 C63.20158105 211.91303085 50.94349915 219.64709771 38.56640625 227.20703125 C37.52323242 227.84624512 36.48005859 228.48545898 35.40527344 229.14404297 C32.0885587 231.17266098 28.76591495 233.19121569 25.44140625 235.20703125 C24.42240234 235.83037354 23.40339844 236.45371582 22.35351562 237.09594727 C2.72266832 248.93455664 2.72266832 248.93455664 -8.43359375 247.20703125 C-16.11648905 245.19350525 -22.7762103 241.63140213 -26.9375 234.703125 C-30.16568027 228.38472088 -31.58248021 223.41645501 -31.58076477 216.3140564 C-31.58444146 215.50113274 -31.58811815 214.68820909 -31.59190625 213.85065138 C-31.60295019 211.11706203 -31.60678816 208.38351068 -31.6105957 205.64990234 C-31.61685989 203.69364297 -31.62350665 201.7373848 -31.63050842 199.78112793 C-31.64792384 194.45856112 -31.65847199 189.1360033 -31.66671395 183.81341505 C-31.67186371 180.48775673 -31.6779395 177.1621012 -31.68422508 173.83644485 C-31.70327999 163.43056065 -31.71750964 153.02468356 -31.72583705 142.61878526 C-31.73560696 130.60859445 -31.76191889 118.59858807 -31.80233794 106.58846223 C-31.83250747 97.30510915 -31.84730679 88.02180889 -31.85061806 78.73840773 C-31.85296786 73.19421881 -31.86191918 67.65022685 -31.88707924 62.10609055 C-31.91037903 56.88743407 -31.9145854 51.66910396 -31.90431786 46.45040894 C-31.90382283 44.53845763 -31.91013345 42.62649016 -31.9238739 40.71458817 C-32.04906668 22.25693558 -32.04906668 22.25693558 -27.43359375 15.20703125 C-26.95277344 14.3975 -26.47195313 13.58796875 -25.9765625 12.75390625 C-21.04368269 6.21464195 -16.82138299 2.42799023 -8.62109375 0.83203125 C-5.74888838 0.48055 -2.88239339 0.24521164 0 0 Z " fill="#8A8A89" transform="translate(332.43359375,302.79296875)"/>
<path d="M0 0 C0.82048828 -0.020625 1.64097656 -0.04125 2.48632812 -0.0625 C5.91886341 -0.08477111 8.53327336 -0.03299106 11.70703125 1.33984375 C13.85687663 4.11365481 13.75998648 6.59835125 14.0625 10.0625 C14.92979764 14.81785356 15.38232515 16.65115121 19.3125 19.57421875 C25.82780097 22.75578575 25.82780097 22.75578575 32.8515625 22.578125 C36.08137354 20.74177759 38.96305444 18.55608849 41.90625 16.296875 C44.1875 15.25 44.1875 15.25 46.57421875 15.7578125 C49.85281475 17.62989572 52.65994413 19.91108762 55.5 22.375 C56.04978516 22.84292969 56.59957031 23.31085938 57.16601562 23.79296875 C58.51146409 24.93952483 59.850179 26.09397451 61.1875 27.25 C60.45002435 32.05216705 58.51638899 35.56356642 56.1484375 39.75 C54.96072348 42.8399877 55.17262348 44.120007 56.1875 47.25 C57.1300204 49.35996044 58.13381883 51.44329541 59.1875 53.5 C59.991875 55.08554687 59.991875 55.08554687 60.8125 56.703125 C61.95837287 59.11630523 61.95837287 59.11630523 63.1875 60.25 C66.77241118 60.78932292 70.36596262 61.21667045 73.96484375 61.65234375 C77.1875 62.25 77.1875 62.25 79.1875 64.25 C81.10957209 70.52639588 81.39763565 76.7357947 81.1875 83.25 C80.011875 83.848125 78.83625 84.44625 77.625 85.0625 C76.89925781 85.43375 76.17351562 85.805 75.42578125 86.1875 C73.40727798 87.14567258 71.42537689 87.8507941 69.3125 88.5625 C65.8830179 89.98186629 65.8830179 89.98186629 64.875 93.5625 C64.5346875 95.3878125 64.5346875 95.3878125 64.1875 97.25 C63.630625 98.796875 63.630625 98.796875 63.0625 100.375 C62.14727502 103.38216778 61.74952246 105.14266459 62.1875 108.25 C64.63811375 111.00640211 67.32762671 113.31814965 70.09765625 115.75 C72.1875 118.25 72.1875 118.25 72.17578125 120.7109375 C71.06482571 123.56517109 69.79678718 126.19442166 68.3125 128.875 C67.79945313 129.81601562 67.28640625 130.75703125 66.7578125 131.7265625 C65.36386434 133.96658865 64.2867226 135.66487273 62.1875 137.25 C58.41096564 137.11977468 55.47132494 136.89907134 52.0859375 135.1875 C49.61534412 133.96567927 47.95508216 133.36603217 45.1875 133.25 C40.24314689 135.06493937 35.95810055 137.67324845 33.1875 142.25 C31.52160754 148.11176179 31.84947217 154.22400388 32.1875 160.25 C18.51413274 166.18926693 18.51413274 166.18926693 13.1875 164.25 C11.53910641 161.47305662 10.47571892 158.6254132 9.30078125 155.62109375 C3.80330214 146.85154759 -6.2513996 141.96350542 -15.04598999 136.95294189 C-18.27876135 135.11063619 -21.49561127 133.24082753 -24.71484375 131.375 C-25.34141373 131.01282379 -25.9679837 130.65064758 -26.61354065 130.27749634 C-31.91931661 127.20522746 -37.16043742 124.04451667 -42.30200195 120.7043457 C-45.67840263 118.52102926 -49.08403886 116.56517849 -52.6640625 114.73046875 C-65.64708785 107.86993279 -65.64708785 107.86993279 -67.578125 102.32421875 C-68.45466887 98.66006405 -68.66959376 95.01166102 -68.8125 91.25 C-69.55110688 87.8932435 -69.55110688 87.8932435 -73.19140625 86.42578125 C-74.58116196 85.79407411 -75.97596534 85.17338204 -77.375 84.5625 C-78.08591797 84.24216797 -78.79683594 83.92183594 -79.52929688 83.59179688 C-81.28616662 82.80179504 -83.04881345 82.02466377 -84.8125 81.25 C-84.17513736 65.60164835 -84.17513736 65.60164835 -80.8125 59.25 C-77.38028033 57.83251717 -73.72250997 58.1508999 -70.0625 58.1875 C-68.30679687 58.20103516 -68.30679687 58.20103516 -66.515625 58.21484375 C-65.62359375 58.22644531 -64.7315625 58.23804688 -63.8125 58.25 C-63.53792969 57.36054688 -63.26335937 56.47109375 -62.98046875 55.5546875 C-61.92690071 52.57368897 -60.68840776 50.10760383 -59.125 47.375 C-57.08111372 43.33560345 -56.23952043 40.64676906 -57.140625 36.1953125 C-58.14007713 33.30154995 -59.56154832 30.70973449 -61.16796875 28.109375 C-61.8125 26.25 -61.8125 26.25 -61.234375 24.2734375 C-59.42604834 21.70004956 -57.36235875 20.04621982 -54.875 18.125 C-53.99972656 17.44179688 -53.12445313 16.75859375 -52.22265625 16.0546875 C-47.15205011 12.25789651 -47.15205011 12.25789651 -44.125 12.1875 C-40.62125721 13.31134203 -39.45720711 14.36785705 -36.875 16.875 C-33.74798517 19.84803792 -33.74798517 19.84803792 -29.5 20.375 C-28.283125 20.00375 -27.06625 19.6325 -25.8125 19.25 C-24.91917969 19.17265625 -24.02585937 19.0953125 -23.10546875 19.015625 C-19.7594212 18.5676936 -17.66829089 18.08334724 -14.8125 16.25 C-12.34199942 11.39568307 -11.10701827 6.51605006 -9.8125 1.25 C-7.66072304 -0.90177696 -2.9736484 0.01842695 0 0 Z " fill="#979796" transform="translate(505.8125,246.75)"/>
<path d="M0 0 C4.32495866 2.73490033 8.05467115 5.72859992 11.453125 9.57421875 C12.00742187 10.17492187 12.56171875 10.775625 13.1328125 11.39453125 C22.98407981 22.85244301 24.72852453 35.75013118 23.69238281 50.31689453 C22.37299599 62.76490535 15.36245756 73.963666 5.8359375 81.859375 C1.92647786 84.67290415 -2.09825381 86.7477242 -6.546875 88.57421875 C-7.30355469 88.89390625 -8.06023437 89.21359375 -8.83984375 89.54296875 C-20.62320811 93.80629656 -34.23681114 92.61749261 -45.546875 87.57421875 C-49.18521595 85.55058819 -52.35890602 83.24593899 -55.546875 80.57421875 C-56.32933594 79.92710937 -57.11179687 79.28 -57.91796875 78.61328125 C-66.22750726 71.07444193 -71.93849244 60.82404959 -72.68212891 49.51782227 C-73.36632811 34.48327445 -71.67250758 22.38422999 -61.546875 10.57421875 C-45.59961592 -6.20390593 -20.73777545 -11.60933749 0 0 Z " fill="#0E0E0E" transform="translate(528.546875,287.42578125)"/>
<path d="M0 0 C0.37125 0.70125 0.7425 1.4025 1.125 2.125 C3.89119466 6.36649848 7.31280848 9.05742769 12 11 C16.03716888 10.94992659 19.41738988 9.79130506 23 8 C25.81640625 7.55078125 25.81640625 7.55078125 29 8 C31.02224966 10.08325267 32.40014936 11.79233355 33.9375 14.1875 C34.34806641 14.76564453 34.75863281 15.34378906 35.18164062 15.93945312 C36.95837183 18.59106715 38.00391754 20.46094614 37.98046875 23.6875 C36.8392632 26.3791083 35.4916749 27.80967016 33.375 29.8125 C30.25386936 33.21527417 30.25386936 33.21527417 29.9375 37.9375 C30.27318807 39.2963653 30.62850415 40.65048445 31 42 C31.09667969 42.79148437 31.19335938 43.58296875 31.29296875 44.3984375 C31.62356684 46.80208008 32.0114542 48.78257387 33 51 C36.21622877 53.0213863 36.21622877 53.0213863 40 54 C45.67857143 56.67857143 45.67857143 56.67857143 48 59 C48.01171875 62.08203125 48.01171875 62.08203125 47.6875 65.8125 C47.58824219 67.03582031 47.48898437 68.25914062 47.38671875 69.51953125 C47.06620929 72.40411635 46.6306399 75.17020556 46 78 C43 79 43 79 40.2578125 78.96484375 C36.93199704 78.93581544 34.20193196 79.07403589 31 80 C28.420144 83.03188206 27.27305133 86.26686298 26 90 C25.61070312 90.68449219 25.22140625 91.36898437 24.8203125 92.07421875 C23.77228838 94.53458015 24.06577963 95.52649425 25 98 C25.9928928 100.0057232 27.06878632 101.94875274 28.16015625 103.90234375 C29.25000691 106.62443587 29.53124664 108.08685246 29 111 C27.14940773 113.21362712 25.44621804 114.98392047 23.3125 116.875 C22.78205078 117.38546875 22.25160156 117.8959375 21.70507812 118.421875 C19.2452931 120.65529944 17.75289443 122.00444842 14.35546875 121.984375 C11.25126278 120.68709489 8.76793235 118.93546676 6.0625 116.9609375 C2.55196203 115.32534595 -0.14475271 116.69636191 -3.640625 117.9375 C-4.50171875 118.288125 -5.3628125 118.63875 -6.25 119 C-7.12140625 119.350625 -7.9928125 119.70125 -8.890625 120.0625 C-10.94334861 120.82368892 -10.94334861 120.82368892 -12 122 C-12.79223471 125.5809009 -13.48408616 129.17726019 -14.18359375 132.77734375 C-15 136 -15 136 -17 138 C-19.86162022 138.27882453 -22.57370361 138.41621662 -25.4375 138.4375 C-26.21416016 138.47037109 -26.99082031 138.50324219 -27.79101562 138.53710938 C-30.05859375 138.55859375 -30.05859375 138.55859375 -34 138 C-36.6408619 135.01014847 -37.21989854 132.28120757 -37.875 128.4375 C-38.4901751 126.03416703 -38.4901751 126.03416703 -40 124 C-44.88548435 121.47189318 -50.10539984 119.79049423 -55.64453125 120.19140625 C-58.49258864 121.16909759 -60.1164924 122.51537427 -62.3125 124.5625 C-63.00988281 125.20316406 -63.70726562 125.84382812 -64.42578125 126.50390625 C-65.20501953 127.24447266 -65.20501953 127.24447266 -66 128 C-69.77040494 126.66534338 -72.57124903 124.99723337 -75.6875 122.5 C-76.45449219 121.8915625 -77.22148437 121.283125 -78.01171875 120.65625 C-81.96508954 117.36306884 -81.96508954 117.36306884 -82.3125 113.75 C-81.97903945 109.74847345 -80.77063547 107.54127094 -79 104 C-79.67193301 97.75312282 -82.41734761 92.26422035 -87 88 C-92.10115816 86.13071302 -97.62265938 86.08392008 -103 86 C-105.76081837 79.6381142 -106.63176001 73.90767437 -107 67 C-105.42065361 66.01441551 -103.83634827 65.03677459 -102.25 64.0625 C-101.36828125 63.51722656 -100.4865625 62.97195313 -99.578125 62.41015625 C-97 61 -97 61 -94.796875 60.62109375 C-94.20390625 60.41613281 -93.6109375 60.21117187 -93 60 C-92.71817871 59.22188965 -92.43635742 58.4437793 -92.14599609 57.64208984 C-90.80299172 54.54579812 -89.74118978 53.78534332 -86.8671875 52.10546875 C-86.06152344 51.62529297 -85.25585938 51.14511719 -84.42578125 50.65039062 C-83.58402344 50.16763672 -82.74226563 49.68488281 -81.875 49.1875 C-81.02550781 48.68541016 -80.17601562 48.18332031 -79.30078125 47.66601562 C-77.20756206 46.43125149 -75.107594 45.21000915 -73 44 C-72.67 44.66 -72.34 45.32 -72 46 C-72.30292969 46.84949219 -72.60585938 47.69898438 -72.91796875 48.57421875 C-74.24140117 52.7642918 -74.34389348 56.44880577 -74.3125 60.8125 C-74.30758545 61.61421631 -74.3026709 62.41593262 -74.29760742 63.24194336 C-74.18394323 68.96886974 -73.60236503 73.82649831 -71 79 C-70.63648438 79.75410156 -70.27296875 80.50820313 -69.8984375 81.28515625 C-64.27955375 92.14228968 -56.29412166 99.1757669 -44.9375 103.9375 C-32.43196998 107.52975279 -17.83156905 105.57131752 -6.44921875 99.6796875 C3.55710835 93.52453503 8.9695588 84.90112621 13 74 C15.77438631 61.75209948 15.55359282 47.89514171 9 37 C2.47182295 27.01390494 -6.12196768 19.33759923 -17.86328125 16.24609375 C-20.23787004 15.7658021 -22.60193855 15.34185131 -25 15 C-21.39452173 11.13299558 -16.94324462 8.61511121 -12.5 5.8125 C-11.63246094 5.25369141 -10.76492188 4.69488281 -9.87109375 4.11914062 C-9.03707031 3.59126953 -8.20304687 3.06339844 -7.34375 2.51953125 C-6.58255859 2.03589111 -5.82136719 1.55225098 -5.03710938 1.05395508 C-3 0 -3 0 0 0 Z " fill="#B6B5B5" transform="translate(506,458)"/>
<path d="M0 0 C6.36016693 4.7289324 10.47159845 12.59505764 13.1328125 19.87109375 C14.41761555 31.12180152 12.73595888 40.06515059 7.4453125 50.05859375 C0.55375042 58.44022331 -6.703872 64.17152276 -17.70703125 65.24609375 C-28.69047523 65.74729393 -36.62785434 63.84122698 -45.1796875 56.74609375 C-49.82251922 52.31463114 -52.57406077 47.82921778 -54.8671875 41.87109375 C-55.3003125 40.77796875 -55.7334375 39.68484375 -56.1796875 38.55859375 C-58.32196456 27.06819863 -56.7789519 17.76286155 -50.5859375 7.8125 C-38.11989639 -8.45858273 -16.73046551 -10.11528145 0 0 Z " fill="#0C0C0C" transform="translate(497.8671875,489.12890625)"/>
<path d="M0 0 C7.50538952 6.17109805 12.0634595 13.48686843 13.125 23.16015625 C13.52131703 32.7584594 11.30095832 40.70036987 5.1875 48.1875 C-1.04535264 54.71270032 -9.13843132 58.39053725 -18.125 58.75 C-26.66150704 58.65493867 -33.16039292 55.83209931 -39.57421875 50.2265625 C-46.17762903 43.26918013 -49.36638223 36.94342577 -49.625 27.3125 C-49.30115188 17.59705653 -46.87609217 10.46914263 -40.1875 3.3125 C-27.58366304 -8.22144603 -14.57785049 -7.71768555 0 0 Z " fill="#0C0B0B" transform="translate(522.1875,303.6875)"/>
<path d="M0 0 C0.33 2.64 0.66 5.28 1 8 C-2.45987971 9.48567368 -5.93524002 10.5657618 -9.56835938 11.5456543 C-53.30333492 23.50223229 -89.80836231 54.84479545 -112.55664062 93.46728516 C-118.97107935 104.72293254 -124.08959114 116.31513701 -127.9375 128.6875 C-128.20796143 129.55213867 -128.47842285 130.41677734 -128.75708008 131.30761719 C-133.53406497 147.6901771 -134.41505987 163.65103746 -134.1875 180.625 C-134.17240288 182.61457303 -134.1587235 184.60415734 -134.14648438 186.59375 C-134.11393 191.3961199 -134.06243524 196.19792949 -134 201 C-137.96 201.99 -137.96 201.99 -142 203 C-142.80415574 197.32054938 -143.17190354 191.79905833 -143.203125 186.06640625 C-143.20882507 185.23020248 -143.21452515 184.39399872 -143.22039795 183.53245544 C-143.2297931 181.76847576 -143.23635993 180.00447896 -143.24023438 178.24047852 C-143.24986054 175.60074372 -143.2809034 172.96181575 -143.3125 170.32226562 C-143.40426969 155.76110503 -141.64625625 142.01570961 -137.3125 128.0625 C-137.05831299 127.23387451 -136.80412598 126.40524902 -136.54223633 125.55151367 C-133.73245744 116.70840532 -130.07466634 108.32584582 -126 100 C-125.46802002 98.90727783 -125.46802002 98.90727783 -124.92529297 97.79248047 C-119.84387307 87.48106113 -113.99504619 78.11318311 -107 69 C-106.34 68.11570312 -105.68 67.23140625 -105 66.3203125 C-93.18562981 51.13700081 -78.78524787 37.93201949 -63 27 C-62.35385742 26.55221191 -61.70771484 26.10442383 -61.04199219 25.64306641 C-44.5304418 14.39661466 -20.57349895 0 0 0 Z " fill="#727272" transform="translate(384,249)"/>
<path d="M0 0 C1.22338867 2.03442383 1.22338867 2.03442383 2.41796875 4.70703125 C2.86358154 5.68067627 3.30919434 6.65432129 3.76831055 7.6574707 C4.23664307 8.69863037 4.70497559 9.73979004 5.1875 10.8125 C9.1924544 19.44155454 13.22761568 27.40287435 19 35 C19.64453125 35.85207031 20.2890625 36.70414063 20.953125 37.58203125 C25.68232961 43.64248833 30.75899024 49.37959055 36 55 C36.72445312 55.79019531 37.44890625 56.58039062 38.1953125 57.39453125 C49.11999156 68.85618606 62.26901378 78.19906258 76 86 C77.12148438 86.65355469 78.24296875 87.30710937 79.3984375 87.98046875 C96.08044018 97.46388446 114.2008848 103.41135714 133 107 C133.68352539 107.13132324 134.36705078 107.26264648 135.07128906 107.39794922 C156.75202546 111.29567112 180.47281608 110.03184716 202 106 C203.98 109.96 203.98 109.96 206 114 C192.15974991 117.25866354 179.08241528 118.70241259 164.875 118.5625 C163.94177917 118.55824005 163.00855835 118.5539801 162.04705811 118.54959106 C146.56684448 118.45170696 131.96725365 117.23596533 117 113 C115.62328125 112.61448975 115.62328125 112.61448975 114.21875 112.22119141 C94.83693865 106.61519519 76.67314124 98.35223028 60 87 C58.54400391 86.01580078 58.54400391 86.01580078 57.05859375 85.01171875 C29.59171089 65.70094084 -1.30006291 34.87972321 -9 1 C-3.375 -1.125 -3.375 -1.125 0 0 Z " fill="#A1A1A0" transform="translate(260,486)"/>
<path d="M0 0 C1.89101131 4.00971389 2.25702273 7.22099062 2.265625 11.63671875 C2.26981445 12.92739258 2.27400391 14.21806641 2.27832031 15.54785156 C2.27018154 16.92774266 2.26071543 18.3076265 2.25 19.6875 C2.24689819 20.38629272 2.24379639 21.08508545 2.24060059 21.80505371 C2.18400713 32.64425466 1.7975925 43.29557751 0 54 C-0.1129541 54.72413086 -0.2259082 55.44826172 -0.34228516 56.19433594 C-6.73498232 95.9197713 -29.92846684 136.15184576 -61.15234375 161.765625 C-63 163 -63 163 -65 163 C-67.05226804 158.65402062 -67.05226804 158.65402062 -66.84765625 156.09375 C-65.65541527 153.14885984 -63.79750619 151.78461245 -61.375 149.75 C-56.8052093 145.76193655 -52.8270718 141.69506746 -49 137 C-48.17886719 136.01644531 -47.35773437 135.03289062 -46.51171875 134.01953125 C-19.58317445 101.2154922 -7.074138 62.28251395 -6.875 20.125 C-6.87016602 19.14934082 -6.86533203 18.17368164 -6.86035156 17.16845703 C-6.87351068 11.68580527 -7.19220041 6.42379722 -8 1 C-5.10765685 0.17361624 -3.11257569 0 0 0 Z " fill="#C0BFBF" transform="translate(606,400)"/>
<path d="M0 0 C9.17636852 6.39706232 15.39873684 15.09807685 18 26 C19.33502266 36.16251942 17.21960737 46.92621142 11.25 55.375 C4.92050016 62.87253722 -2.89610698 69.9739664 -13.00927734 71.25439453 C-24.26748916 72.06673779 -34.03760886 71.05380421 -43.01953125 63.79296875 C-51.66215135 55.96858487 -57.28227047 47.87160761 -58.23828125 36.0546875 C-58.49525827 25.04525101 -56.13313777 16.56472721 -48.97265625 8.06640625 C-35.75136499 -5.7832236 -17.06389487 -9.95184443 0 0 Z M-44 12 C-50.77603558 21.09153621 -52.20800911 29.76077795 -51 41 C-47.82441444 51.24186945 -41.15873154 58.52804645 -31.75 63.5 C-24.40177495 66.37260456 -16.14238773 66.07526415 -8.75 63.5 C0.53288862 59.18307944 6.38257868 52.49573096 10 43 C12.51794569 34.97808328 11.80873388 25.46890013 8 18 C4.07293948 11.67306917 -0.31933541 7.28874415 -7 4 C-7.62648438 3.68160156 -8.25296875 3.36320312 -8.8984375 3.03515625 C-21.86612837 -2.70767828 -34.45017857 2.53976413 -44 12 Z " fill="#A09F9F" transform="translate(524,297)"/>
<path d="M0 0 C0.33 0 0.66 0 1 0 C2.62450397 12.76138119 -0.76117839 20.81060092 -6.5234375 32.03125 C-9.67954444 38.19905161 -11.45426155 44.2392702 -13 51 C-13.36969932 52.33017948 -13.74225205 53.65956818 -14.1171875 54.98828125 C-21.68507037 83.59378495 -18.8813714 121.87902732 -3.921875 147.8515625 C-3.28765625 148.89054688 -2.6534375 149.92953125 -2 151 C2.22650474 158.0825102 1.64404048 165.03638838 1 173 C-16.70681914 157.09184194 -24.50418182 123.61787871 -25.87548828 100.78759766 C-27.53191727 63.70307577 -19.90946437 32.87802422 -1 1 C-0.67 0.67 -0.34 0.34 0 0 Z " fill="#818080" transform="translate(290,339)"/>
<path d="M0 0 C6.36016693 4.7289324 10.47159845 12.59505764 13.1328125 19.87109375 C14.41761555 31.12180152 12.73595888 40.06515059 7.4453125 50.05859375 C0.55375042 58.44022331 -6.703872 64.17152276 -17.70703125 65.24609375 C-28.69047523 65.74729393 -36.62785434 63.84122698 -45.1796875 56.74609375 C-49.82251922 52.31463114 -52.57406077 47.82921778 -54.8671875 41.87109375 C-55.3003125 40.77796875 -55.7334375 39.68484375 -56.1796875 38.55859375 C-58.32196456 27.06819863 -56.7789519 17.76286155 -50.5859375 7.8125 C-38.11989639 -8.45858273 -16.73046551 -10.11528145 0 0 Z M-44.8671875 10.87109375 C-50.49859219 18.1326419 -51.65637304 24.8768839 -50.8671875 33.87109375 C-49.0621455 43.3058511 -43.59020387 50.28731551 -35.7890625 55.68359375 C-29.57851779 59.52100349 -22.98732568 59.59688848 -15.8671875 58.87109375 C-7.74076994 56.74728822 -1.61354637 51.34017864 3.5078125 44.87109375 C7.49367011 37.51258739 8.10607273 30.15855207 7.1328125 21.87109375 C5.89240736 18.21906426 4.22414097 15.10204469 2.1328125 11.87109375 C1.5346875 10.94296875 0.9365625 10.01484375 0.3203125 9.05859375 C-5.8691413 2.86913995 -12.97804925 -0.16288124 -21.6796875 -0.50390625 C-31.49752513 -0.29759817 -38.16736725 3.89781145 -44.8671875 10.87109375 Z " fill="#B6B6B5" transform="translate(497.8671875,489.12890625)"/>
<path d="M0 0 C7.68534163 7.68534163 7.30606396 27.90895592 7.50024414 38.11450195 C7.49914618 54.74538305 6.12100778 71.10159858 1 87 C0.67515625 88.09699219 0.3503125 89.19398438 0.015625 90.32421875 C-4.45442815 104.72942429 -10.52355734 119.14682896 -20 131 C-21.98 129.68 -23.96 128.36 -26 127 C-24.64297506 122.39580825 -22.73874031 118.65734597 -20.25 114.5625 C-1.96636357 83.48530905 2.57203244 44.53751511 -5.78125 9.74609375 C-6 7 -6 7 -4.78515625 4.8828125 C-4.21667969 4.30273438 -3.64820313 3.72265625 -3.0625 3.125 C-2.49660156 2.52945312 -1.93070313 1.93390625 -1.34765625 1.3203125 C-0.90292969 0.88460938 -0.45820312 0.44890625 0 0 Z " fill="#BBBBBA" transform="translate(578,381)"/>
<path d="M0 0 C0.99 0.99 0.99 0.99 2 2 C1.625 5.625 1.625 5.625 1 9 C0.17089111 9.0093457 -0.65821777 9.01869141 -1.51245117 9.02832031 C-32.01470868 9.45861286 -61.42163102 12.90038548 -87.7265625 29.74609375 C-91.10302955 31.60837197 -93.34595955 30.93011939 -97 30 C-98.36414206 29.04245407 -99.70465789 28.04874525 -101 27 C-72.14561583 8.13174183 -34.89313943 -4.73464492 0 0 Z " fill="#808080" transform="translate(437,267)"/>
<path d="M0 0 C1.79798768 0.86394133 3.5944914 1.7314226 5.37646484 2.62792969 C24.13529372 11.98793398 43.31816233 15.39724727 64 18 C64.99 21.96 64.99 21.96 66 26 C40.67186795 26.51225436 12.49162667 19.778563 -9 6 C-9.66 5.01 -10.32 4.02 -11 3 C-4.20965676 -1.30925629 -4.20965676 -1.30925629 0 0 Z " fill="#A8A7A6" transform="translate(353,555)"/>
<path d="M0 0 C21.39525627 -0.44573451 44.75867336 1.41991471 65 9 C65.99 9.99 65.99 9.99 67 11 C63.6796875 15.78515625 63.6796875 15.78515625 62 17 C57.45378266 16.80071376 54.55804108 15.29247278 50.75 12.9375 C43.81508166 9.28754298 37.71216784 9.53065234 30.1015625 9.88671875 C26.58285115 10.04513658 23.47662178 9.62020137 20 9 C16.54507897 8.73754153 13.0863849 8.58810234 9.625 8.4375 C8.69816406 8.39431641 7.77132813 8.35113281 6.81640625 8.30664062 C4.54439706 8.20123814 2.27229075 8.09911394 0 8 C0 5.36 0 2.72 0 0 Z " fill="#818180" transform="translate(420,244)"/>
<path d="M0 0 C3.05992005 1.61656154 5.24119476 3.0762371 7.4375 5.75 C8.32494823 9.29979291 8.08221461 12.54787239 7 16 C4.03328132 19.57527636 1.91419636 21.78247769 -2.75 22.3125 C-6.83266269 21.91993628 -8.81816032 20.53100884 -12 18 C-14.45876515 14.31185227 -14.6943399 11.283157 -14 7 C-10.31376961 1.15287594 -6.88633847 -0.70030561 0 0 Z " fill="#767676" transform="translate(253,458)"/>
<path d="M0 0 C3.27981751 2.06771104 4.84746007 3.77119011 7 7 C7.45971784 11.96495273 7.15065843 15.06167696 4 19 C0.98997559 21.34113009 -2.27741542 21.41216607 -6.03125 21.328125 C-9.14316604 20.80947233 -10.85067869 19.21445226 -13 17 C-14.72869779 13.54260443 -14.48966895 9.78024432 -14 6 C-10.38202545 0.21124072 -6.69367308 -0.95073284 0 0 Z " fill="#727272" transform="translate(406,239)"/>
<path d="M0 0 C3.08416293 2.05610862 4.68386831 3.45571068 5.44140625 7.15625 C5.65351271 11.26153629 5.33679 13.461136 3.125 17 C-0.37857054 20.29747816 -3.06242886 20.41854976 -7.734375 20.328125 C-10 20 -10 20 -13.0625 18.125 C-15.77455796 13.75071297 -16.05508586 10.01990068 -15 5 C-10.58008122 -0.69936896 -6.92691958 -1.88073151 0 0 Z " fill="#B4B3B2" transform="translate(604,373)"/>
<path d="M0 0 C1.46084431 3.06130835 2.91822602 6.12425288 4.375 9.1875 C4.7875 10.05181641 5.2 10.91613281 5.625 11.80664062 C6.02460937 12.64775391 6.42421875 13.48886719 6.8359375 14.35546875 C7.38580322 15.51018677 7.38580322 15.51018677 7.94677734 16.68823242 C11 23.38989337 11 23.38989337 11 27 C7.04 27.495 7.04 27.495 3 28 C1.53678269 24.79387234 0.08031235 21.58472265 -1.375 18.375 C-1.99375 17.01955078 -1.99375 17.01955078 -2.625 15.63671875 C-4.65686646 11.14694931 -6.57084302 6.72721155 -8 2 C-2.25 0 -2.25 0 0 0 Z " fill="#B4B3B1" transform="translate(586,339)"/>
<path d="M0 0 C3.5625 0.1875 3.5625 0.1875 5.5625 2.1875 C5.92737512 5.03352594 5.96449375 6.5739306 4.375 9 C1.91342224 10.61275784 0.45184264 10.6209014 -2.4375 10.1875 C-4.3125 9.0625 -4.3125 9.0625 -5.4375 7.1875 C-4.88381118 0.2663897 -4.88381118 0.2663897 0 0 Z " fill="#7B7B7B" transform="translate(282.4375,425.8125)"/>
<path d="M0 0 C2.5625 0.3125 2.5625 0.3125 4.4375 1.5 C5.5625 3.3125 5.5625 3.3125 5.375 5.875 C4.5625 8.3125 4.5625 8.3125 2.5625 10.3125 C-3.00568182 9.74431818 -3.00568182 9.74431818 -4.4375 8.3125 C-4.625 5.375 -4.625 5.375 -4.4375 2.3125 C-2.4375 0.3125 -2.4375 0.3125 0 0 Z " fill="#79797A" transform="translate(282.4375,403.6875)"/>
<path d="M0 0 C5.94 0 11.88 0 18 0 C17.67 0.66 17.34 1.32 17 2 C11.06 2.33 5.12 2.66 -1 3 C-0.67 2.01 -0.34 1.02 0 0 Z " fill="#797A7A" transform="translate(497,247)"/>
<path d="M0 0 C1.32 0.66 2.64 1.32 4 2 C2.70700306 4.88437779 1.34058637 6.87219421 -1 9 C-1.99 8.67 -2.98 8.34 -4 8 C-4.6875 5.9375 -4.6875 5.9375 -5 4 C-4.0409375 3.8453125 -4.0409375 3.8453125 -3.0625 3.6875 C-2.381875 3.460625 -1.70125 3.23375 -1 3 C-0.67 2.01 -0.34 1.02 0 0 Z " fill="#C4C5C4" transform="translate(499,538)"/>
<path d="M0 0 C1.07765625 0.00902344 2.1553125 0.01804687 3.265625 0.02734375 C4.08546875 0.03894531 4.9053125 0.05054688 5.75 0.0625 C5.75 0.3925 5.75 0.7225 5.75 1.0625 C5.02554687 1.09988281 4.30109375 1.13726562 3.5546875 1.17578125 C-2.11191152 1.56110998 -6.39903618 2.047036 -11.25 5.0625 C-10.92 3.7425 -10.59 2.4225 -10.25 1.0625 C-6.78777385 -0.00473961 -3.60960734 -0.03923486 0 0 Z " fill="#5C5E5D" transform="translate(435.25,304.9375)"/>
<path d="M0 0 C-1.15173355 2.46800047 -2.04783565 4.04783565 -4 6 C-4.40047444 8.32275177 -4.7397104 10.65739357 -5 13 C-5.33 13 -5.66 13 -6 13 C-6.48929664 5.78287462 -6.48929664 5.78287462 -4.125 2 C-2 0 -2 0 0 0 Z " fill="#686969" transform="translate(245,460)"/>
<path d="M0 0 C2.46800047 1.15173355 4.04783565 2.04783565 6 4 C5.625 6.125 5.625 6.125 5 8 C2.27573689 5.64722731 1.1858237 3.37503669 0 0 Z " fill="#A8A6A7" transform="translate(565,354)"/>
<path d="M0 0 C0.66 0.33 1.32 0.66 2 1 C-1.625 5.875 -1.625 5.875 -5 7 C-4.60196439 4.11424181 -4.20990931 3.17810487 -1.9375 1.25 C-1.298125 0.8375 -0.65875 0.425 0 0 Z " fill="#B5B5B3" transform="translate(544,551)"/>
</svg>
